<mxfile host="65bd71144e">
    <diagram id="76DP_UWShPvK50uWAOmz" name="Página-1">
        <mxGraphModel dx="685" dy="1431" grid="1" gridSize="10" guides="1" tooltips="1" connect="1" arrows="1" fold="1" page="1" pageScale="1" pageWidth="827" pageHeight="1169" math="0" shadow="0">
            <root>
                <mxCell id="0"/>
                <mxCell id="1" parent="0"/>
                <mxCell id="4VAHJokIAV4qInDK7anF-14" style="edgeStyle=orthogonalEdgeStyle;rounded=0;orthogonalLoop=1;jettySize=auto;html=1;endArrow=block;endFill=0;exitX=0.563;exitY=0;exitDx=0;exitDy=0;exitPerimeter=0;strokeWidth=1;endSize=12;fillColor=#f5f5f5;strokeColor=#666666;" parent="1" source="4VAHJokIAV4qInDK7anF-5" target="4VAHJokIAV4qInDK7anF-1" edge="1">
                    <mxGeometry relative="1" as="geometry"/>
                </mxCell>
                <mxCell id="4VAHJokIAV4qInDK7anF-1" value="Vetor3" style="swimlane;fontStyle=1;align=center;verticalAlign=top;childLayout=stackLayout;horizontal=1;startSize=26;horizontalStack=0;resizeParent=1;resizeParentMax=0;resizeLast=0;collapsible=1;marginBottom=0;fillColor=#f5f5f5;fontColor=#333333;strokeColor=#666666;" parent="1" vertex="1">
                    <mxGeometry x="235" y="-220" width="390" height="400" as="geometry"/>
                </mxCell>
                <mxCell id="4VAHJokIAV4qInDK7anF-2" value="- x : float&#10;- y : float&#10;- z : float&#10;&#10;&#10;" style="text;strokeColor=#666666;fillColor=#f5f5f5;align=left;verticalAlign=top;spacingLeft=4;spacingRight=4;overflow=hidden;rotatable=0;points=[[0,0.5],[1,0.5]];portConstraint=eastwest;fontColor=#333333;" parent="4VAHJokIAV4qInDK7anF-1" vertex="1">
                    <mxGeometry y="26" width="390" height="54" as="geometry"/>
                </mxCell>
                <mxCell id="4VAHJokIAV4qInDK7anF-3" value="" style="line;strokeWidth=1;fillColor=#f5f5f5;align=left;verticalAlign=middle;spacingTop=-1;spacingLeft=3;spacingRight=3;rotatable=0;labelPosition=right;points=[];portConstraint=eastwest;strokeColor=#666666;fontColor=#333333;" parent="4VAHJokIAV4qInDK7anF-1" vertex="1">
                    <mxGeometry y="80" width="390" height="8" as="geometry"/>
                </mxCell>
                <mxCell id="4VAHJokIAV4qInDK7anF-4" value="+ Vetor3()&#10;+ Vetor3(float, float, float)&#10;+ Vetor3(Vetor3 &amp;)&#10;+ ~Vetor3()&#10;&#10;+ operator &lt;&lt; (ostream&amp;, Vetor3 &amp;) :  &lt;&lt;friend&gt;&gt; ostream&amp;&#10;+ operator == (Vetor3 &amp;) : bool &#10;+ operator != (Vetor3 &amp;) : bool    &#10;+ operator = (Vetor3 &amp;) : Vetor3&#10;+ operator ! () : Vetor3 &#10;+ operator + (Vetor3 &amp;) : Vetor3&#10;+ operator - (Vetor3 &amp;) : Vetor3 &#10;+ operator * (float) : Vetor3 &#10;&#10;+ getMagnitude() : float&#10;+ getX() : float&#10;+ getY() : float&#10;+ getZ() : float  &#10;+ setX (float) : void&#10;+ setY (float) : void&#10;+ setZ (float) : void&#10;&#10;" style="text;strokeColor=#666666;fillColor=#f5f5f5;align=left;verticalAlign=top;spacingLeft=4;spacingRight=4;overflow=hidden;rotatable=0;points=[[0,0.5],[1,0.5]];portConstraint=eastwest;fontColor=#333333;" parent="4VAHJokIAV4qInDK7anF-1" vertex="1">
                    <mxGeometry y="88" width="390" height="312" as="geometry"/>
                </mxCell>
                <mxCell id="4VAHJokIAV4qInDK7anF-5" value="Materia&#10;" style="swimlane;fontStyle=1;align=center;verticalAlign=top;childLayout=stackLayout;horizontal=1;startSize=26;horizontalStack=0;resizeParent=1;resizeParentMax=0;resizeLast=0;collapsible=1;marginBottom=0;fillColor=#f5f5f5;fontColor=#333333;strokeColor=#666666;" parent="1" vertex="1">
                    <mxGeometry x="217" y="270" width="380" height="350" as="geometry"/>
                </mxCell>
                <mxCell id="4VAHJokIAV4qInDK7anF-6" value="- massaInverso : float&#10;- velocidade : Vetor3 &#10;- aceleracao : Vetor3&#10;- posicao : Vetor3&#10;- forca : Vetor3" style="text;strokeColor=#666666;fillColor=#f5f5f5;align=left;verticalAlign=top;spacingLeft=4;spacingRight=4;overflow=hidden;rotatable=0;points=[[0,0.5],[1,0.5]];portConstraint=eastwest;fontColor=#333333;" parent="4VAHJokIAV4qInDK7anF-5" vertex="1">
                    <mxGeometry y="26" width="380" height="94" as="geometry"/>
                </mxCell>
                <mxCell id="4VAHJokIAV4qInDK7anF-7" value="" style="line;strokeWidth=1;fillColor=#f5f5f5;align=left;verticalAlign=middle;spacingTop=-1;spacingLeft=3;spacingRight=3;rotatable=0;labelPosition=right;points=[];portConstraint=eastwest;strokeColor=#666666;fontColor=#333333;" parent="4VAHJokIAV4qInDK7anF-5" vertex="1">
                    <mxGeometry y="120" width="380" height="8" as="geometry"/>
                </mxCell>
                <mxCell id="4VAHJokIAV4qInDK7anF-8" value="&#10;+ Materia()   &#10;+ Materia(Vetor3, Vetor3, float, int)&#10;+ Materia(Materia &amp;)&#10;+ ~Materia()&#10;&#10;+ operator &lt;&lt; (ostream &amp;, Materia &amp;) : &lt;&lt;friend&gt;&gt; ostream&amp;&#10;+ operator == (Materia &amp;) : bool &#10;+ operator != (Materia &amp;) : bool &#10;+ operator = (Materia &amp;) : Materia&#10;+ operator ! () : Materia&#10;&#10;+ updateMateria() : void+ aplicarForca(Vetor3 &amp;) : void&#10;+ displayMateria() : void&#10;+ resetarVetores() : void&#10;&#10;&#10;&#10;" style="text;strokeColor=#666666;fillColor=#f5f5f5;align=left;verticalAlign=top;spacingLeft=4;spacingRight=4;overflow=hidden;rotatable=0;points=[[0,0.5],[1,0.5]];portConstraint=eastwest;fontColor=#333333;" parent="4VAHJokIAV4qInDK7anF-5" vertex="1">
                    <mxGeometry y="128" width="380" height="222" as="geometry"/>
                </mxCell>
                <mxCell id="4VAHJokIAV4qInDK7anF-9" value="Canhao" style="swimlane;fontStyle=1;align=center;verticalAlign=top;childLayout=stackLayout;horizontal=1;startSize=26;horizontalStack=0;resizeParent=1;resizeParentMax=0;resizeLast=0;collapsible=1;marginBottom=0;fillColor=#f5f5f5;fontColor=#333333;strokeColor=#666666;" parent="1" vertex="1">
                    <mxGeometry x="20" y="710" width="370" height="320" as="geometry"/>
                </mxCell>
                <mxCell id="4VAHJokIAV4qInDK7anF-10" value="+ BALAPESO : float &#10;+ vida : int&#10;+ forcaDisparo : Vetor3&#10;+ bala : Materia" style="text;strokeColor=#666666;fillColor=#f5f5f5;align=left;verticalAlign=top;spacingLeft=4;spacingRight=4;overflow=hidden;rotatable=0;points=[[0,0.5],[1,0.5]];portConstraint=eastwest;fontColor=#333333;" parent="4VAHJokIAV4qInDK7anF-9" vertex="1">
                    <mxGeometry y="26" width="370" height="84" as="geometry"/>
                </mxCell>
                <mxCell id="4VAHJokIAV4qInDK7anF-11" value="" style="line;strokeWidth=1;fillColor=#f5f5f5;align=left;verticalAlign=middle;spacingTop=-1;spacingLeft=3;spacingRight=3;rotatable=0;labelPosition=right;points=[];portConstraint=eastwest;strokeColor=#666666;fontColor=#333333;" parent="4VAHJokIAV4qInDK7anF-9" vertex="1">
                    <mxGeometry y="110" width="370" height="8" as="geometry"/>
                </mxCell>
                <mxCell id="4VAHJokIAV4qInDK7anF-12" value="+ Canhao () &#10;+ Canhao (int, Vetor3)&#10;+ Canhao (const Canhao &amp;)&#10;+ ~Canhao ()&#10;&#10;+ disparar () : void&#10;+ disparar (Vetor3) : void&#10;+ getVida () : int&#10;&#10;+ operator &lt;&lt; (ostream &amp;, const Canhao &amp;) : &lt;&lt;friend&gt;&gt; ostream&amp;&#10;+ operator == (Canhao &amp;) : bool&#10;+ operator != (Canhao &amp;) : bool&#10;+ operator = (Canhao &amp;) : Canhao&#10;+ operator ! () : Canhao" style="text;strokeColor=#666666;fillColor=#f5f5f5;align=left;verticalAlign=top;spacingLeft=4;spacingRight=4;overflow=hidden;rotatable=0;points=[[0,0.5],[1,0.5]];portConstraint=eastwest;fontColor=#333333;" parent="4VAHJokIAV4qInDK7anF-9" vertex="1">
                    <mxGeometry y="118" width="370" height="202" as="geometry"/>
                </mxCell>
                <mxCell id="4VAHJokIAV4qInDK7anF-30" value="" style="endArrow=block;endFill=0;endSize=12;html=1;rounded=0;exitX=0.544;exitY=0.012;exitDx=0;exitDy=0;exitPerimeter=0;fillColor=#f5f5f5;strokeColor=#666666;" parent="1" source="4VAHJokIAV4qInDK7anF-9" target="4VAHJokIAV4qInDK7anF-8" edge="1">
                    <mxGeometry width="160" relative="1" as="geometry">
                        <mxPoint x="336" y="299.01" as="sourcePoint"/>
                        <mxPoint x="429.03999999999996" y="355.99800000000005" as="targetPoint"/>
                    </mxGeometry>
                </mxCell>
                <mxCell id="7" value="Foguete" style="swimlane;fontStyle=1;align=center;verticalAlign=top;childLayout=stackLayout;horizontal=1;startSize=26;horizontalStack=0;resizeParent=1;resizeParentMax=0;resizeLast=0;collapsible=1;marginBottom=0;fillColor=#f5f5f5;fontColor=#333333;strokeColor=#666666;" vertex="1" parent="1">
                    <mxGeometry x="440" y="710" width="350" height="290" as="geometry"/>
                </mxCell>
                <mxCell id="8" value="+ PESOFOGUETE : int &#10;+ gasolina : float&#10;+ foguete : Materia" style="text;strokeColor=#666666;fillColor=#f5f5f5;align=left;verticalAlign=top;spacingLeft=4;spacingRight=4;overflow=hidden;rotatable=0;points=[[0,0.5],[1,0.5]];portConstraint=eastwest;fontColor=#333333;" vertex="1" parent="7">
                    <mxGeometry y="26" width="350" height="64" as="geometry"/>
                </mxCell>
                <mxCell id="9" value="" style="line;strokeWidth=1;fillColor=#f5f5f5;align=left;verticalAlign=middle;spacingTop=-1;spacingLeft=3;spacingRight=3;rotatable=0;labelPosition=right;points=[];portConstraint=eastwest;strokeColor=#666666;fontColor=#333333;" vertex="1" parent="7">
                    <mxGeometry y="90" width="350" height="8" as="geometry"/>
                </mxCell>
                <mxCell id="10" value="+ Foguete () &#10;+ Foguete (int)&#10;+ Foguete (const Foguete &amp;)&#10;+ ~Foguete ()&#10;&#10;+ combustao () : void&#10;&#10;+ operator &lt;&lt; (ostream &amp;, Foguete &amp;) : &lt;&lt;friend&gt;&gt; ostream&amp;&#10;+ operator == (Foguete &amp;) : bool&#10;+ operator != (Foguete &amp;) : bool&#10;+ operator = (Foguete &amp;) : Foguete&#10;+ operator ! () : Foguete" style="text;strokeColor=#666666;fillColor=#f5f5f5;align=left;verticalAlign=top;spacingLeft=4;spacingRight=4;overflow=hidden;rotatable=0;points=[[0,0.5],[1,0.5]];portConstraint=eastwest;fontColor=#333333;" vertex="1" parent="7">
                    <mxGeometry y="98" width="350" height="192" as="geometry"/>
                </mxCell>
                <mxCell id="11" value="" style="endArrow=block;endFill=0;endSize=12;html=1;rounded=0;exitX=0.544;exitY=0.012;exitDx=0;exitDy=0;exitPerimeter=0;entryX=0.696;entryY=1.002;entryDx=0;entryDy=0;entryPerimeter=0;fillColor=#f5f5f5;strokeColor=#666666;" edge="1" parent="1" source="7" target="4VAHJokIAV4qInDK7anF-8">
                    <mxGeometry width="160" relative="1" as="geometry">
                        <mxPoint x="776" y="299.01" as="sourcePoint"/>
                        <mxPoint x="783.4562220566318" y="620" as="targetPoint"/>
                    </mxGeometry>
                </mxCell>
            </root>
        </mxGraphModel>
    </diagram>
</mxfile>